<svg version="1.1" id="Layer_1" xmlns="http://www.w3.org/2000/svg" xmlns:xlink="http://www.w3.org/1999/xlink" x="0px" y="0px"
	 width="100%" viewBox="0 0 500 500" enable-background="new 0 0 500 500" xml:space="preserve">
<path fill="#000000" opacity="1.000000" stroke="none" 
	d="
M501.000000,241.000000 
	C501.000000,327.999969 501.000000,414.499969 501.000000,500.999939 
	C334.333405,500.999969 167.666794,500.999969 1.000136,501.000000 
	C1.000091,334.333435 1.000091,167.666870 1.000045,1.000225 
	C167.666519,1.000150 334.333038,1.000150 500.999786,1.000075 
	C501.000000,80.833336 501.000000,160.666672 501.000000,241.000000 
M477.000000,316.500000 
	C477.000000,219.798569 477.000000,123.097122 477.000000,25.699444 
	C443.449371,25.699444 411.323425,25.699444 379.253448,25.699444 
	C379.253448,28.349127 379.253448,30.952480 379.253448,34.081543 
	C406.552673,34.081543 433.604156,34.081543 461.323975,34.081543 
	C461.323975,161.252151 461.323975,287.891998 461.323975,415.067017 
	C438.457977,415.067017 415.406128,415.067017 392.758209,415.067017 
	C392.758209,436.611847 392.758209,457.614594 392.758209,478.679810 
	C421.237488,478.679810 448.957428,478.679810 477.000000,478.679810 
	C477.000000,424.740173 477.000000,371.120087 477.000000,316.500000 
M299.748108,386.001617 
	C324.129944,386.001617 348.511780,386.001617 373.583496,386.001617 
	C367.723694,370.500854 362.291260,355.798218 356.617798,341.189209 
	C343.165680,306.550323 329.486877,271.999207 316.112518,237.330505 
	C304.181763,206.403809 292.577240,175.351257 280.641296,144.426605 
	C280.062683,142.927551 277.691132,141.164703 276.134064,141.145096 
	C257.970978,140.916168 239.803589,140.953629 221.638779,141.099274 
	C220.420654,141.109039 218.538284,142.292007 218.105576,143.382126 
	C213.201431,155.736542 208.551666,168.191574 203.771912,180.595810 
	C195.190628,202.865494 186.604767,225.133575 177.949615,247.374619 
	C170.688461,266.033478 163.263153,284.628510 156.025986,303.296570 
	C148.905838,321.662842 141.943329,340.090210 134.887161,358.481354 
	C131.455566,367.425415 127.968124,376.348022 124.536194,385.202393 
	C125.423599,385.674469 125.700943,385.950989 125.978630,385.951324 
	C150.810471,385.981628 175.642578,386.031647 200.473404,385.875275 
	C201.661804,385.867767 203.467606,384.252625 203.922714,382.999908 
	C208.082794,371.548462 212.043457,360.023682 215.967667,348.488159 
	C216.694580,346.351349 217.268967,344.897736 220.148880,344.920868 
	C239.480225,345.076263 258.814026,344.941193 278.144653,345.136688 
	C279.447815,345.149902 281.425079,346.841553 281.915161,348.181732 
	C286.099152,359.624146 290.106567,371.134399 293.934509,382.701233 
	C294.822083,385.383179 296.128571,386.465027 299.748108,386.001617 
M100.499573,34.000000 
	C106.929123,34.000000 113.358665,34.000000 119.765793,34.000000 
	C119.765793,30.690638 119.765793,28.085691 119.765793,25.281557 
	C118.932961,25.173609 118.303780,25.021021 117.674515,25.020699 
	C88.514160,25.005728 59.353645,25.049585 30.193588,24.953405 
	C25.635471,24.938372 24.927628,27.145037 24.930019,31.126566 
	C25.013826,170.596481 25.000000,310.066467 25.000006,449.536438 
	C25.000006,451.287689 25.000008,453.038940 25.000008,455.000000 
	C27.399158,455.000000 29.053478,455.000000 30.707798,455.000000 
	C66.533417,455.000000 102.359039,455.006439 138.184647,454.986023 
	C140.669785,454.984589 142.776031,454.742310 144.081436,457.902191 
	C146.833023,464.562775 152.119659,467.382233 159.424393,467.068848 
	C167.327957,466.729797 173.643158,462.001465 174.959351,454.768463 
	C176.539886,446.082794 172.425415,438.487213 164.729492,435.883514 
	C156.206284,432.999939 148.075226,435.755554 144.479858,443.148773 
	C143.079071,446.029266 141.570862,447.115326 138.224289,447.097595 
	C107.065208,446.932709 75.904892,447.002747 44.744934,446.991333 
	C43.295712,446.990784 41.846542,446.863190 40.303337,446.790314 
	C40.303337,309.088043 40.303337,171.722992 40.303337,34.000000 
	C60.236511,34.000000 79.868156,34.000000 100.499573,34.000000 
M265.001831,50.638931 
	C268.165771,44.991924 271.329742,39.344917 274.683075,33.359936 
	C257.160889,33.359936 240.643250,33.359936 223.219788,33.359936 
	C226.417419,38.836266 229.284698,43.623455 232.030502,48.479336 
	C235.816299,55.174412 239.459778,61.950188 243.266846,68.632919 
	C244.964142,71.612259 246.911606,74.449066 248.997559,77.749283 
	C254.628571,68.494186 259.812988,59.973110 265.001831,50.638931 
z"/>
<path fill="#1ABC9C" opacity="1.000000" stroke="none" 
	d="
M477.000000,317.000000 
	C477.000000,371.120087 477.000000,424.740173 477.000000,478.679810 
	C448.957428,478.679810 421.237488,478.679810 392.758209,478.679810 
	C392.758209,457.614594 392.758209,436.611847 392.758209,415.067017 
	C415.406128,415.067017 438.457977,415.067017 461.323975,415.067017 
	C461.323975,287.891998 461.323975,161.252151 461.323975,34.081543 
	C433.604156,34.081543 406.552673,34.081543 379.253448,34.081543 
	C379.253448,30.952480 379.253448,28.349127 379.253448,25.699444 
	C411.323425,25.699444 443.449371,25.699444 477.000000,25.699444 
	C477.000000,123.097122 477.000000,219.798569 477.000000,317.000000 
z"/>
<path fill="#FEFFFD" opacity="1.000000" stroke="none" 
	d="
M299.283081,386.001617 
	C296.128571,386.465027 294.822083,385.383179 293.934509,382.701233 
	C290.106567,371.134399 286.099152,359.624146 281.915161,348.181732 
	C281.425079,346.841553 279.447815,345.149902 278.144653,345.136688 
	C258.814026,344.941193 239.480225,345.076263 220.148880,344.920868 
	C217.268967,344.897736 216.694580,346.351349 215.967667,348.488159 
	C212.043457,360.023682 208.082794,371.548462 203.922714,382.999908 
	C203.467606,384.252625 201.661804,385.867767 200.473404,385.875275 
	C175.642578,386.031647 150.810471,385.981628 125.978630,385.951324 
	C125.700943,385.950989 125.423599,385.674469 124.536194,385.202393 
	C127.968124,376.348022 131.455566,367.425415 134.887161,358.481354 
	C141.943329,340.090210 148.905838,321.662842 156.025986,303.296570 
	C163.263153,284.628510 170.688461,266.033478 177.949615,247.374619 
	C186.604767,225.133575 195.190628,202.865494 203.771912,180.595810 
	C208.551666,168.191574 213.201431,155.736542 218.105576,143.382126 
	C218.538284,142.292007 220.420654,141.109039 221.638779,141.099274 
	C239.803589,140.953629 257.970978,140.916168 276.134064,141.145096 
	C277.691132,141.164703 280.062683,142.927551 280.641296,144.426605 
	C292.577240,175.351257 304.181763,206.403809 316.112518,237.330505 
	C329.486877,271.999207 343.165680,306.550323 356.617798,341.189209 
	C362.291260,355.798218 367.723694,370.500854 373.583496,386.001617 
	C348.511780,386.001617 324.129944,386.001617 299.283081,386.001617 
M266.499969,332.846893 
	C272.830597,332.846924 279.170868,333.055298 285.488037,332.763763 
	C288.914795,332.605652 290.396942,333.706146 291.466705,337.014160 
	C295.452698,349.339996 299.810425,361.545593 303.987885,373.677826 
	C321.189056,373.677826 338.068573,373.677826 355.340668,373.677826 
	C354.823456,372.035461 354.500671,370.772888 354.034882,369.565491 
	C326.752838,298.844574 299.437927,228.136307 272.239410,157.383301 
	C271.095581,154.407776 269.692871,153.291138 266.503601,153.339355 
	C255.010971,153.513168 243.511810,153.534607 232.020218,153.328690 
	C228.647354,153.268234 227.116501,154.337250 225.882874,157.535660 
	C198.723694,227.950592 171.432831,298.314728 144.183838,368.695038 
	C143.569580,370.281616 143.149551,371.943420 142.504303,373.998901 
	C159.273926,373.998901 175.259613,374.078094 191.241089,373.855560 
	C192.587708,373.836823 194.614014,372.053589 195.125748,370.652313 
	C199.230530,359.412323 203.196548,348.115082 206.855209,336.722992 
	C207.878845,333.535645 209.416321,332.759857 212.522247,332.783051 
	C230.180679,332.914948 247.840591,332.846863 266.499969,332.846893 
z"/>
<path fill="#1ABC9C" opacity="1.000000" stroke="none" 
	d="
M99.999687,34.000000 
	C79.868156,34.000000 60.236511,34.000000 40.303337,34.000000 
	C40.303337,171.722992 40.303337,309.088043 40.303337,446.790314 
	C41.846542,446.863190 43.295712,446.990784 44.744934,446.991333 
	C75.904892,447.002747 107.065208,446.932709 138.224289,447.097595 
	C141.570862,447.115326 143.079071,446.029266 144.479858,443.148773 
	C148.075226,435.755554 156.206284,432.999939 164.729492,435.883514 
	C172.425415,438.487213 176.539886,446.082794 174.959351,454.768463 
	C173.643158,462.001465 167.327957,466.729797 159.424393,467.068848 
	C152.119659,467.382233 146.833023,464.562775 144.081436,457.902191 
	C142.776031,454.742310 140.669785,454.984589 138.184647,454.986023 
	C102.359039,455.006439 66.533417,455.000000 30.707798,455.000000 
	C29.053478,455.000000 27.399158,455.000000 25.000008,455.000000 
	C25.000008,453.038940 25.000006,451.287689 25.000006,449.536438 
	C25.000000,310.066467 25.013826,170.596481 24.930019,31.126566 
	C24.927628,27.145037 25.635471,24.938372 30.193588,24.953405 
	C59.353645,25.049585 88.514160,25.005728 117.674515,25.020699 
	C118.303780,25.021021 118.932961,25.173609 119.765793,25.281557 
	C119.765793,28.085691 119.765793,30.690638 119.765793,34.000000 
	C113.358665,34.000000 106.929123,34.000000 99.999687,34.000000 
z"/>
<path fill="#FFFFFE" opacity="1.000000" stroke="none" 
	d="
M264.999634,51.045479 
	C259.812988,59.973110 254.628571,68.494186 248.997559,77.749283 
	C246.911606,74.449066 244.964142,71.612259 243.266846,68.632919 
	C239.459778,61.950188 235.816299,55.174412 232.030502,48.479336 
	C229.284698,43.623455 226.417419,38.836266 223.219788,33.359936 
	C240.643250,33.359936 257.160889,33.359936 274.683075,33.359936 
	C271.329742,39.344917 268.165771,44.991924 264.999634,51.045479 
z"/>
<path fill="#1CBC9D" opacity="1.000000" stroke="none" 
	d="
M266.000000,332.846863 
	C247.840591,332.846863 230.180679,332.914948 212.522247,332.783051 
	C209.416321,332.759857 207.878845,333.535645 206.855209,336.722992 
	C203.196548,348.115082 199.230530,359.412323 195.125748,370.652313 
	C194.614014,372.053589 192.587708,373.836823 191.241089,373.855560 
	C175.259613,374.078094 159.273926,373.998901 142.504303,373.998901 
	C143.149551,371.943420 143.569580,370.281616 144.183838,368.695038 
	C171.432831,298.314728 198.723694,227.950592 225.882874,157.535660 
	C227.116501,154.337250 228.647354,153.268234 232.020218,153.328690 
	C243.511810,153.534607 255.010971,153.513168 266.503601,153.339355 
	C269.692871,153.291138 271.095581,154.407776 272.239410,157.383301 
	C299.437927,228.136307 326.752838,298.844574 354.034882,369.565491 
	C354.500671,370.772888 354.823456,372.035461 355.340668,373.677826 
	C338.068573,373.677826 321.189056,373.677826 303.987885,373.677826 
	C299.810425,361.545593 295.452698,349.339996 291.466705,337.014160 
	C290.396942,333.706146 288.914795,332.605652 285.488037,332.763763 
	C279.170868,333.055298 272.830597,332.846924 266.000000,332.846863 
M225.564529,282.019470 
	C223.900864,286.968872 222.237183,291.918243 220.494507,297.102722 
	C239.932602,297.102722 258.571350,297.102722 277.778534,297.102722 
	C268.207153,269.140045 258.845947,241.791382 248.983948,212.979630 
	C240.926498,236.759872 233.384628,259.018494 225.564529,282.019470 
z"/>
<path fill="#FDFEFD" opacity="1.000000" stroke="none" 
	d="
M225.703644,281.648285 
	C233.384628,259.018494 240.926498,236.759872 248.983948,212.979630 
	C258.845947,241.791382 268.207153,269.140045 277.778534,297.102722 
	C258.571350,297.102722 239.932602,297.102722 220.494507,297.102722 
	C222.237183,291.918243 223.900864,286.968872 225.703644,281.648285 
M241.556305,273.963013 
	C240.247299,277.465973 238.938293,280.968903 237.562500,284.650574 
	C245.542648,284.650574 252.720306,284.650574 260.483887,284.650574 
	C256.706390,273.720856 253.100510,263.287598 249.494598,252.854324 
	C249.143997,252.876160 248.793381,252.897980 248.442780,252.919815 
	C246.285156,259.699707 244.127518,266.479614 241.556305,273.963013 
z"/>
<path fill="#000000" opacity="1.000000" stroke="none" 
	d="
M241.763092,273.611267 
	C244.127518,266.479614 246.285156,259.699707 248.442780,252.919815 
	C248.793381,252.897980 249.143997,252.876160 249.494598,252.854324 
	C253.100510,263.287598 256.706390,273.720856 260.483887,284.650574 
	C252.720306,284.650574 245.542648,284.650574 237.562500,284.650574 
	C238.938293,280.968903 240.247299,277.465973 241.763092,273.611267 
z"/>
</svg>